rec1_002.mot
nRows=25
nColumns=19

name rec1_002.mot
datacolumns 19
datarows 25
range 10.0040790100 10.0520793371
endheader
time	ground_force_vx	ground_force_vy	ground_force_vz	ground_force_px	ground_force_py	ground_force_pz	1_ground_force_vx	1_ground_force_vy	1_ground_force_vz	1_ground_force_px	1_ground_force_py	1_ground_force_pz	ground_torque_x	ground_torque_y	ground_torque_z	1_ground_torque_x	1_ground_torque_y	1_ground_torque_z	
       10.0040790100	        5.9212498032	       27.2901278458	       -2.0801470214	       -0.7000000000	       -0.0180000000	        0.5600000000	     -103.9075711933	      701.1069045842	       52.3967577571	       -0.7000000000	       -0.0180000000	       -0.5600000000	       11.6339523684	       -1.5471608797	       19.2818997188	     -320.0398939268	     -108.1410830183	      825.7864232573	
       10.0060795053	        4.4110174256	       24.0636235289	       -2.1211485076	       -0.7000000000	       -0.0180000000	        0.5600000000	     -103.8743246790	      706.3222491340	       51.7624588994	       -0.7000000000	       -0.0180000000	       -0.5600000000	       10.1121374248	       -1.0488543326	       16.9831984027	     -322.4034370130	     -107.2804786008	      830.9587664223	
       10.0080790006	        3.0449428546	       21.1874613020	       -2.1099643796	       -0.7000000000	       -0.0180000000	        0.5600000000	     -103.6145453088	      711.0596639139	       51.0604959115	       -0.7000000000	       -0.0180000000	       -0.5600000000	        8.7576110894	       -0.6284452908	       14.9339810713	     -324.5646070858	     -106.2354901992	      835.4889217815	
       10.0100793359	        1.8261339903	       18.6350378402	       -2.0583260185	       -0.7000000000	       -0.0180000000	        0.5600000000	     -103.1257900561	      715.3104255021	       50.3066990903	       -0.7000000000	       -0.0180000000	       -0.5600000000	        7.5578165575	       -0.2770429685	       13.1174572169	     -326.5184501206	     -105.0233850988	      839.3647095422	
       10.0120790312	        0.7571804928	       16.3809228611	       -1.9758252822	       -0.7000000000	       -0.0180000000	        0.5600000000	     -102.4097358361	      719.0727842594	       49.5142108269	       -0.7000000000	       -0.0180000000	       -0.5600000000	        6.5006443059	        0.0118146017	       11.5171433535	     -328.2629276678	     -103.6602574894	      842.5844159105	
       10.0140793666	       -0.1602896795	       14.4012353652	       -1.8691752793	       -0.7000000000	       -0.0180000000	        0.5600000000	     -101.4719172503	      722.3507455361	       48.6937709987	       -0.7000000000	       -0.0180000000	       -0.5600000000	        5.5745291244	        0.2414902403	       10.1171266857	     -329.7984638178	     -102.1613534876	      845.1548554425	
       10.0160791018	       -0.9264549310	       12.6737996169	       -1.7422036725	       -0.7000000000	       -0.0180000000	        0.5600000000	     -100.3213719455	      725.1528117969	       47.8543656821	       -0.7000000000	       -0.0180000000	       -0.5600000000	        4.7684773798	        0.4126784107	        8.9023481252	     -331.1274950487	     -100.5416387846	      847.0893170674	
       10.0180793971	       -1.5442407520	       11.1779741127	       -1.5966743924	       -0.7000000000	       -0.0180000000	        0.5600000000	      -98.9702510498	      727.4910132835	       47.0041362790	       -0.7000000000	       -0.0180000000	       -0.5600000000	        4.0720590079	        0.5248895414	        7.8585348607	     -332.2541456398	      -98.8165812905	      848.4061059891	
       10.0200790924	       -2.0199145944	        9.8941276266	       -1.4336733069	       -0.7000000000	       -0.0180000000	        0.5600000000	      -97.4334794953	      729.3804314016	       46.1512809180	       -0.7000000000	       -0.0180000000	       -0.5600000000	        3.4753377111	        0.5785479981	        6.9716031929	     -333.1840331660	      -97.0029659411	      849.1280266808	
       10.0220794277	       -2.3630182739	        8.8031167952	       -1.2550635624	       -0.7000000000	       -0.0180000000	        0.5600000000	      -95.7285532270	      730.8388284431	       45.3045869261	       -0.7000000000	       -0.0180000000	       -0.5600000000	        2.9687998909	        0.5763505474	        6.2269413113	     -333.9240157622	      -95.1194357010	      849.2820892705	
       10.0240791230	       -2.5855934562	        7.8861286113	       -1.0645251887	       -0.7000000000	       -0.0180000000	        0.5600000000	      -93.8754580997	      731.8860203958	       44.4734249611	       -0.7000000000	       -0.0180000000	       -0.5600000000	        2.5433739435	        0.5235820408	        5.6091730509	     -334.4818175353	      -93.1865296581	      848.8986883769	
       10.0260794982	       -2.7009623465	        7.1249037370	       -0.8679158962	       -0.7000000000	       -0.0180000000	        0.5600000000	      -91.8965204136	      732.5430112320	       43.6673629482	       -0.7000000000	       -0.0180000000	       -0.5600000000	        2.1905361092	        0.4279122667	        5.1026346232	     -334.8656656959	      -91.2261595279	      848.0101363334	
       10.0280793137	       -2.7225269258	        6.5020712619	       -0.6729612294	       -0.7000000000	       -0.0180000000	        0.5600000000	      -89.8158588051	      732.8310776243	       42.8956215661	       -0.7000000000	       -0.0180000000	       -0.5600000000	        1.9024041278	        0.2990927818	        4.6922041518	     -335.0840118756	      -89.2605729623	      846.6489551220	
       10.0300795289	       -2.6630431941	        6.0013487236	       -0.4884103111	       -0.7000000000	       -0.0180000000	        0.5600000000	      -87.6583003312	      732.7710343012	       42.1665080847	       -0.7000000000	       -0.0180000000	       -0.5600000000	        1.6717279563	        0.1488589565	        4.3639078002	     -335.1452947144	      -87.3110410669	      844.8466251931	
       10.0320792643	       -2.5345625229	        5.6075434848	       -0.3229252389	       -0.7000000000	       -0.0180000000	        0.5600000000	      -85.4479872485	      732.3829914635	       41.4869307284	       -0.7000000000	       -0.0180000000	       -0.5600000000	        1.4917909543	       -0.0097884897	        4.1050652416	     -335.0577679219	      -85.3966378660	      842.6333613929	
       10.0340795594	       -2.3488853201	        5.3063273048	       -0.1839943229	       -0.7000000000	       -0.0180000000	        0.5600000000	      -83.2071453481	      731.6866516157	       40.8620364023	       -0.7000000000	       -0.0180000000	       -0.5600000000	        1.3562688822	       -0.1645401600	        3.9040258510	     -334.8294531325	      -83.5334372614	      840.0387138643	
       10.0360792547	       -2.1181567053	        5.0839737923	       -0.0769793284	       -0.7000000000	       -0.0180000000	        0.5600000000	      -80.9554264850	      730.7016854421	       40.2950181101	       -0.7000000000	       -0.0180000000	       -0.5600000000	        1.2591051542	       -0.3056528624	        3.7497896503	     -334.4681513538	      -81.7342399279	      837.0921625564	
       10.0380795900	       -1.8551709247	        4.9273976612	       -0.0043520986	       -0.7000000000	       -0.0180000000	        0.5600000000	      -78.7099257555	      729.4476196741	       39.7870820601	       -0.7000000000	       -0.0180000000	       -0.5600000000	        1.1944813213	       -0.4268421211	        3.6319506822	     -333.9813532134	      -80.0086634525	      833.8229684147	
       10.0400793654	       -1.5730585204	        4.8244557715	        0.0347536716	       -0.7000000000	       -0.0180000000	        0.5600000000	      -76.4856637350	      727.9432270374	       39.3376231911	       -0.7000000000	       -0.0180000000	       -0.5600000000	        1.1568586953	       -0.5255161730	        3.5410750575	     -333.3760873290	      -78.3634621385	      830.2592453294	
       10.0420795807	       -1.2843709761	        4.7642251573	        0.0444825113	       -0.7000000000	       -0.0180000000	        0.5600000000	      -74.2960909336	      726.2060534005	       38.9447198516	       -0.7000000000	       -0.0180000000	       -0.5600000000	        1.1410075822	       -0.6023147159	        3.4691904499	     -332.6589062646	      -76.8030730190	      826.4270854977	
       10.0440793160	       -0.9999480583	        4.7371404611	        0.0315187592	       -0.7000000000	       -0.0180000000	        0.5600000000	      -72.1531725418	      724.2524135559	       38.6058675927	       -0.7000000000	       -0.0180000000	       -0.5600000000	        1.1420458918	       -0.6602427763	        3.4100151725	     -331.8360083140	      -75.3302949193	      822.3503860144	
       10.0460797312	       -0.7280794314	        4.7349607404	        0.0037300336	       -0.7000000000	       -0.0180000000	        0.5600000000	      -70.0669451444	      722.0977110434	       38.3187588933	       -0.7000000000	       -0.0180000000	       -0.5600000000	        1.1555261583	       -0.7038646645	        3.3587868895	     -330.9133490000	      -73.9470011879	      818.0514050394	
       10.0480793064	       -0.4743570837	        4.7505425561	       -0.0314433075	       -0.7000000000	       -0.0180000000	        0.5600000000	      -68.0448993930	      719.7568189312	       38.0819090195	       -0.7000000000	       -0.0180000000	       -0.5600000000	        1.1775120277	       -0.7382908739	        3.3118139249	     -329.8967129745	      -72.6547761501	      813.5515390424	
       10.0500799219	       -0.2422781339	        4.7775765985	       -0.0683773490	       -0.7000000000	       -0.0180000000	        0.5600000000	      -66.0916896263	      717.2442350302	       37.8949347323	       -0.7000000000	       -0.0180000000	       -0.5600000000	        1.2046099588	       -0.7679650372	        3.2660729265	     -328.7917548066	      -71.4552692384	      808.8716056942	
       10.0520793371	       -0.0342345376	        4.8105229209	       -0.1040594875	       -0.7000000000	       -0.0180000000	        0.5600000000	      -64.2094080767	      714.5737846078	       37.7584292716	       -0.7000000000	       -0.0180000000	       -0.5600000000	        1.2340045175	       -0.7953220051	        3.2190966063	     -327.6039560490	      -70.3501995977	      804.0313035577	
